<svg xmlns="http://www.w3.org/2000/svg" xml:space="preserve" id="Layer_1" x="0" y="0" style="enable-background:new 0 0 200 222.5" version="1.1" viewBox="0 0 200 222.5"><style>.st2{fill:#0052cc}</style><g id="Layer_2"><g id="Blue"><linearGradient id="SVGID_1_" x1="91.019" x2="43.845" y1="126.053" y2="44.345" gradientTransform="matrix(1 0 0 -1 0 224)" gradientUnits="userSpaceOnUse"><stop offset="0" style="stop-color:#0052cc"/><stop offset=".923" style="stop-color:#2684ff"/></linearGradient><path d="M66.5 84.2c-2.7-2.9-7-2.7-8.8 1L13 174.5c-1.3 2.6-.3 5.8 2.4 7.2.7.4 1.6.6 2.4.6H80c2 0 3.9-1.1 4.8-3 13.4-27.8 5.3-70-18.3-95.1z" style="fill:url(#SVGID_1_)"/><path d="M99.3 2.9c-25 39.6-23.3 83.5-6.9 116.4l30 60c.9 1.8 2.8 3 4.8 3h62.2c3 0 5.3-2.4 5.3-5.3 0-.8-.2-1.6-.6-2.4 0 0-83.7-167.5-85.8-171.7-1.8-3.8-6.6-3.9-9 0z" style="fill:#2681ff"/><path d="M91.2 204.6c0 3.6 1.7 6.4 8.2 7.7 3.9.8 4.7 1.4 4.7 2.7 0 1.3-.8 2.1-3.6 2.1-3.3-.1-6.6-.9-9.4-2.6v5.9c2.9 1.5 6.1 2.2 9.4 2 6.8 0 9.5-3 9.5-7.6m0 .1c0-4.3-2.3-6.3-8.6-7.6-3.5-.8-4.4-1.6-4.4-2.7 0-1.4 1.3-2 3.6-2 2.9.1 5.7.8 8.2 2V199c-2.5-1.1-5.3-1.7-8-1.7-6.3 0-9.6 2.7-9.6 7.2M178.8 197.8v24.3h5.2v-18.6l2.2 5 7.3 13.6h6.5v-24.3h-5.2v15.7l-1.9-4.6-5.9-11.1zM140.1 197.8h5.7v24.3h-5.7zM133.6 214.9c0-4.3-2.3-6.3-8.6-7.6-3.5-.8-4.4-1.6-4.4-2.7 0-1.4 1.3-2 3.6-2 2.9.1 5.7.8 8.2 2V199c-2.5-1.1-5.3-1.7-8-1.7-6.3 0-9.6 2.7-9.6 7.2 0 3.6 1.7 6.4 8.2 7.7 3.9.8 4.7 1.4 4.7 2.7 0 1.3-.8 2.1-3.6 2.1-3.3-.1-6.6-.9-9.4-2.6v5.9c2.9 1.5 6.1 2.2 9.4 2 6.8.2 9.5-2.9 9.5-7.4M47.2 197.8v24.3h11.7l1.8-5.3h-7.8v-19zM24.2 197.8v5.2h6.3v19.1h5.7V203H43v-5.2zM16 197.8H8.5L0 222.1h6.5l1.2-4.1c3 .9 6.1.9 9.1 0l1.2 4.1h6.5L16 197.8zm-3.8 15.8c-1.1 0-2.1-.2-3.1-.4l3.1-10.6 3.1 10.6c-1 .3-2 .4-3.1.4zM79 197.8h-7.5L63 222.1h6.5l1.2-4.1c3 .9 6.1.9 9.1 0l1.2 4.1h6.5L79 197.8zm-3.8 15.8c-1.1 0-2.1-.2-3.1-.4l3.1-10.6 3.1 10.6c-1 .3-2 .4-3.1.4zM166.2 197.8h-7.5l-8.5 24.3h6.5l1.2-4.1c3 .9 6.1.9 9.1 0l1.2 4.1h6.5l-8.5-24.3zm-3.7 15.8c-1.1 0-2.1-.2-3.1-.4l3.1-10.6 3.1 10.6c-1 .3-2.1.4-3.1.4z" class="st2"/></g></g></svg>