<svg id="Design" xmlns="http://www.w3.org/2000/svg" viewBox="0 0 100 100"><defs><style>.cls-1{fill:#8f449a;}.cls-2{fill:#89298d;}.cls-3{fill:#993995;}.cls-4{fill:#88469b;}.cls-5{fill:#9e3293;}.cls-6{fill:#a12c91;}.cls-7{fill:#743f98;}.cls-8{fill:#943f98;}.cls-9{fill:#903e97;}.cls-10{fill:#8c4299;}.cls-11{fill:#8a4299;}.cls-12{fill:#8b499c;}.cls-13{fill:#743594;}.cls-14{fill:#794199;}.cls-15{fill:#943995;}.cls-16{fill:#793895;}.cls-17{fill:#7d439a;}.cls-18{fill:#864098;}.cls-19{fill:#7f449a;}.cls-20{fill:#682d91;}.cls-21{fill:#81459b;}.cls-22{fill:#6e2f92;}.cls-23{fill:#914299;}.cls-24{fill:#7c3a96;}.cls-25{fill:#973493;}.cls-26{fill:#984c9d;}.cls-27{fill:#904a9d;}.cls-28{fill:#9e489b;}</style></defs><title>SVG Icon</title><g id="Axure_RP" data-name="Axure RP"><g id="SVG_Icon" data-name="SVG Icon"><path class="cls-1" d="M450,56.6V67.2l-4.4-2.5-7.8-4.5a3.8,3.8,0,0,0-1.1-.3,11.7,11.7,0,0,0-7.7-3.3l-8.8-.3a12.8,12.8,0,0,0-1.5-1.2L411.4,51l-7.9-4.6-6.7-3.9a5.6,5.6,0,0,1,.7-0.8l7-5.2,5.1-3.5c0,1.4,1.3,1.5,2.2,2l13.7,7.8,16.1,9.3,7.2,4.1Z" transform="translate(-350 0)"/><path class="cls-2" d="M367.8,63.9c0,2.7,0,5.4,0,8.1q0,14,0,28H352l-2-2.8V76.9l7.1-5.2,4.2-3.3,1.2-.6Z" transform="translate(-350 0)"/><path class="cls-3" d="M450,91.7V100H432.5a4.9,4.9,0,0,0-1-1l-9-5.2-3-2c0.8,0,1.1-.3,1-1.1,0-3.4,0-6.8,0-10.3,0-1.1,0-2.1,0-3.3h3.7a2.7,2.7,0,0,0,.6.8l8.2,4.7,11.8,6.6Z" transform="translate(-350 0)"/><path class="cls-4" d="M367.8,9.5V31.1l-1.2-.4L354.8,24,350,21.6q0-9.3,0-18.5l1.7-2.4,1.4,1L365,8.2Z" transform="translate(-350 0)"/><path class="cls-5" d="M419.4,91.7l3,2,9,5.2a4.9,4.9,0,0,1,1,1H408.4a2.1,2.1,0,0,0-.4-0.7l-3.5-2.1-10.1-5.8a25.9,25.9,0,0,0-2.7-1.1V76.7h3.3a1.6,1.6,0,0,1,1.7,1c2.3,4.4,4.7,8.7,7.1,13a1.7,1.7,0,0,0,.9.9h7.1l-2.4-4.2,1.8,0.6,3,1.4v2.3h5.2Z" transform="translate(-350 0)"/><path class="cls-6" d="M391.6,90.2a25.9,25.9,0,0,1,2.7,1.1l10.1,5.8,3.5,2.1a2.1,2.1,0,0,1,.4.7H374.8V81.7h0.6l5.3,3,4.5,2.2c0,1.5,0,3.1,0,4.6h6.2V90.2Z" transform="translate(-350 0)"/><path class="cls-7" d="M411.9,0h35.6L450,2V3.3h-0.5l-13.3,9.9L435,14a6.4,6.4,0,0,0-1.2-1.3l-4.3-2.3L415,2.1C413.9,1.5,412.9.7,411.9,0Z" transform="translate(-350 0)"/><path class="cls-8" d="M450,91.7l-5.2-2.6L433,82.6l-8.2-4.7a2.7,2.7,0,0,1-.6-0.8,59.5,59.5,0,0,0,6.7-.7c3.7-.8,6.6-2.8,7.7-6.7a2.5,2.5,0,0,0,.5.7l9.7,5.6a4,4,0,0,0,1.2.2V91.7Z" transform="translate(-350 0)"/><path class="cls-9" d="M367.8,45.4V60.2l-3.9-2.1-11-6.2L350,50.4V35.8l2,1.1,13.3,7.5A16.1,16.1,0,0,0,367.8,45.4Z" transform="translate(-350 0)"/><path class="cls-10" d="M367.8,45.4a16.1,16.1,0,0,1-2.4-.9L352,37l-2-1.1V21.6l4.8,2.4,11.9,6.8,1.2,0.4Q367.8,38.2,367.8,45.4Z" transform="translate(-350 0)"/><path class="cls-11" d="M450,56.6l-1.1-.3-7.2-4.1-16.1-9.3-13.7-7.8c-0.9-.5-2.2-0.6-2.2-2l0.5-.7,1.3-.7,3-2.1a1.9,1.9,0,0,0,.3.9l3,1.8,10.7,6,11.4,6.4,6.3,3.6,3.9,1.8v6.5Z" transform="translate(-350 0)"/><path class="cls-12" d="M374.8,3.3V0h9.8a3.2,3.2,0,0,0,.6.9L402,13.3l16.9,12.5-2,1.5a4.9,4.9,0,0,0-1-1.1L407,21.3l-12.7-7.3-8.4-4.8-2.6-1.5Z" transform="translate(-350 0)"/><path class="cls-13" d="M450,28.1v9l-1-.4-7-4-16.6-9.5a3.9,3.9,0,0,1-.9-1.2l1.5-1.3,3.8-2.8,1.3-.8a6.1,6.1,0,0,0,1.1,1l14.7,8.4A32.9,32.9,0,0,0,450,28.1Z" transform="translate(-350 0)"/><path class="cls-14" d="M431,17.3l-1.3.8a3.7,3.7,0,0,0-.8-1.2l-5.7-3.3L411.7,6.9,403,2.2A30.1,30.1,0,0,1,400.1,0h11.8c1,0.7,2,1.5,3.1,2.1l14.5,8.3,4.3,2.3A6.4,6.4,0,0,1,435,14l-0.8.8Z" transform="translate(-350 0)"/><path class="cls-15" d="M350,50.4l2.9,1.5,11,6.2,3.9,2.1v3.8l-5.3,3.9-1.2.6-6.8-3.9L350,62.4v-12Z" transform="translate(-350 0)"/><path class="cls-16" d="M424.4,22.1a3.9,3.9,0,0,0,.9,1.2L442,32.7l7,4,1,0.4v5.8l-1.3-.4-3-1.8-8.2-4.4-15.1-8.8a19.4,19.4,0,0,1-2.5-2.1l3-2.5Z" transform="translate(-350 0)"/><path class="cls-17" d="M400.1,0A30.1,30.1,0,0,0,403,2.2l8.6,4.8,11.5,6.6,5.7,3.3a3.7,3.7,0,0,1,.8,1.2l-3.8,2.8a3.6,3.6,0,0,0-.8-1.4c-1.4-.9-2.8-1.6-4.2-2.4L417,14.7,404.2,7.6,391.8,0.6a1.8,1.8,0,0,1-.4-0.6h8.8Z" transform="translate(-350 0)"/><path class="cls-18" d="M416.9,27.3l2-1.5h0.5a10.7,10.7,0,0,0,1.2,1.2l8.1,6L450,48.6v1.5l-3.9-1.8-6.3-3.6-11.4-6.4-10.7-6-3-1.8a1.9,1.9,0,0,1-.3-0.9Z" transform="translate(-350 0)"/><path class="cls-19" d="M391.4,0a1.8,1.8,0,0,0,.4.6l12.4,7.1L417,14.7l3.9,2.3c1.4,0.8,2.9,1.5,4.2,2.4a3.6,3.6,0,0,1,.8,1.4l-1.5,1.3-1.5.8a3.4,3.4,0,0,0-.7-1.2l-3.4-2-13.1-7.4-10-5.9L386.5,1a4.9,4.9,0,0,1-1-1h5.8Z" transform="translate(-350 0)"/><path class="cls-20" d="M436.2,13.3l13.3-9.9H450v18l-1.4-.5-9.8-5.4A20.1,20.1,0,0,1,436.2,13.3Z" transform="translate(-350 0)"/><path class="cls-21" d="M385.6,0a4.9,4.9,0,0,0,1,1l9.1,5.3,10,5.9,13.1,7.4,3.4,2a3.4,3.4,0,0,1,.7,1.2l-3,2.5-0.5.5h-0.5L402,13.3,385.2,0.9a3.2,3.2,0,0,1-.6-0.9h1Z" transform="translate(-350 0)"/><path class="cls-22" d="M436.2,13.3a20.1,20.1,0,0,0,2.6,2.1l9.8,5.4,1.4,0.5v6.8a32.9,32.9,0,0,1-3.3-1.4L432,18.3a6.1,6.1,0,0,1-1.1-1l3.2-2.5L435,14Z" transform="translate(-350 0)"/><path class="cls-23" d="M450,76.2a4,4,0,0,1-1.2-.2l-9.7-5.6a2.5,2.5,0,0,1-.5-0.7c0.8-3.5.5-6.9-1.9-9.8a3.8,3.8,0,0,1,1.1.3l7.8,4.5,4.4,2.5v9Z" transform="translate(-350 0)"/><path class="cls-24" d="M419.4,25.8l0.5-.5a19.4,19.4,0,0,0,2.5,2.1l15.1,8.8,8.2,4.4,3,1.8,1.3,0.4v5.8L428.7,33l-8.1-6A10.7,10.7,0,0,1,419.4,25.8Z" transform="translate(-350 0)"/><path class="cls-21" d="M367.8,9.5L365,8.2,353.1,1.6l-1.4-1,1.6-.6h14.5V9.5Z" transform="translate(-350 0)"/><path class="cls-25" d="M350,62.4l4.5,2.1,6.8,3.9-4.2,3.3L350,76.9Q350,69.7,350,62.4Z" transform="translate(-350 0)"/><path class="cls-26" d="M410.2,32.3l-0.5.7-5.1,3.5-7,5.2a5.6,5.6,0,0,0-.7.8l-1.8,1a3.7,3.7,0,0,0-.7-1.2l-3.1-1.9-12.3-7-4.2-2.1q0-9.8,0-19.5l7.1,3.8,8.8,4.9,4.9,2.7,12,6.9C408.6,30.6,409.8,30.9,410.2,32.3Z" transform="translate(-350 0)"/><path class="cls-27" d="M410.2,32.3c-0.3-1.4-1.6-1.7-2.6-2.3l-12-6.9-4.9-2.7-8.8-4.9-7.1-3.8V3.3l8.4,4.5,2.6,1.5,8.4,4.8L407,21.3l8.9,4.9a4.9,4.9,0,0,1,1,1.1l-2.5,2.3-3,2.1Z" transform="translate(-350 0)"/><path class="cls-28" d="M374.8,31.3l4.2,2.1,12.3,7,3.1,1.9a3.7,3.7,0,0,1,.7,1.2l-4,3-7.3,5.5-4.6,3.2-4.5,3.1c0-3.4-.1-6.7-0.1-10.1C374.8,42.6,374.8,37,374.8,31.3Z" transform="translate(-350 0)"/><path class="cls-3" d="M374.8,58.4l4.5-3.1,4.6-3.2a6.1,6.1,0,0,0,1.1,1.4c0.9,0.6,1.9,1,2.9,1.6a5.5,5.5,0,0,1,1,1.2h-3.6c0,0.7,0,1.2,0,1.6V77.2l-0.8-.2-7.2-3.9-2.5-1.1V58.4Z" transform="translate(-350 0)"/><path class="cls-5" d="M374.8,71.9l2.5,1.1,7.2,3.9,0.8,0.2V87l-4.5-2.2-5.3-3h-0.6V71.9Z" transform="translate(-350 0)"/><path class="cls-8" d="M420.2,56.3h-6V70.9a3.7,3.7,0,0,1-1.1-.3l-2.7-2c0-.9,0-1.8,0-2.6a8.6,8.6,0,0,0-4.8-7.9,16.2,16.2,0,0,0-7.5-1.7h-9.3a5.5,5.5,0,0,0-1-1.2c-0.9-.6-2-1-2.9-1.6a6.1,6.1,0,0,1-1.1-1.4l7.3-5.5,4-3,1.8-1,6.7,3.9,7.9,4.6,7.3,4.1A12.8,12.8,0,0,1,420.2,56.3Z" transform="translate(-350 0)"/><path class="cls-3" d="M409.4,87.5l-7-11.4c4.1-1.1,7-3.3,8-7.4l2.7,2a3.7,3.7,0,0,0,1.1.3V89.5l-3-1.4Z" transform="translate(-350 0)"/><path class="cls-8" d="M420.5,61.5c2.7,0.1,5.2.1,7.7,0.4s5.2,3.2,4.2,6.4a4.4,4.4,0,0,1-3.7,3c-2.7.4-5.4,0.4-8.3,0.6V61.5Z" transform="translate(-350 0)"/><path class="cls-3" d="M391.6,71.6V61.7c3.2,0.1,6.4-.4,9.5.6a4.2,4.2,0,0,1,3.1,4.1,4.3,4.3,0,0,1-3,4.5,12.7,12.7,0,0,1-3.5.7h-6.1Z" transform="translate(-350 0)"/></g></g></svg>