<svg xmlns="http://www.w3.org/2000/svg" id="Design" viewBox="0 0 100 100">
  <defs>
    <style>
      .cls-1{fill:#8f449a;} .cls-2{fill:#89298d;} .cls-3{fill:#993995;} .cls-4{fill:#88469b;} .cls-5{fill:#9e3293;} .cls-6{fill:#a12c91;} .cls-7{fill:#743f98;} .cls-8{fill:#943f98;} .cls-9{fill:#903e97;} .cls-10{fill:#8c4299;} .cls-11{fill:#8a4299;} .cls-12{fill:#8b499c;} .cls-13{fill:#743594;} .cls-14{fill:#794199;} .cls-15{fill:#943995;} .cls-16{fill:#793895;} .cls-17{fill:#7d439a;} .cls-18{fill:#864098;} .cls-19{fill:#7f449a;} .cls-20{fill:#682d91;} .cls-21{fill:#81459b;} .cls-22{fill:#6e2f92;} .cls-23{fill:#914299;} .cls-24{fill:#7c3a96;} .cls-25{fill:#973493;} .cls-26{fill:#984c9d;} .cls-27{fill:#904a9d;} .cls-28{fill:#9e489b;}
    </style>
  </defs>
  <g id="Axure_RP" data-name="Axure RP">
    <path d="M100 56.6v10.6l-4.4-2.5-7.8-4.5a3.8 3.8 0 0 0-1-.3 11.7 11.7 0 0 0-7.8-4l-8.8-1a12.8 12.8 0 0 0-1.5-1l-7.3-4-8-5-6.6-4a5.6 5.6 0 0 1 .7-1l7-5.4 5-3.5c0 1 1.4 1.3 2.3 2l13.7 8 16 9.4 7.3 4z" class="cls-1"/>
    <path d="M17.8 64v36H2l-2-2.8V77l7-5.3 4.3-3.3 1.2-.6z" class="cls-2"/>
    <path d="M100 91.7v8.3H82.5a5 5 0 0 0-1-1l-9-5.2-3-2c.8 0 1-.3 1-1V77h3.7a2.7 2.7 0 0 0 .6 1l8.2 4.6 11.8 6.6z" class="cls-3"/>
    <path d="M17.8 9.5V31l-1.2-.3L4.8 24 0 21.6V3L1.7.8l1.4 1 12 6.5z" class="cls-4"/>
    <path d="M69.4 91.7l3 2 9 5.2a5 5 0 0 1 1 1h-24a2 2 0 0 0-.4-1l-3.5-2-10-6a26 26 0 0 0-2.8-1V76H45a1.6 1.6 0 0 1 1.7 1l7 13a1.7 1.7 0 0 0 1 1h7l-2.3-4 1.8.7 3 1.4v3h5.2z" class="cls-5"/>
    <path d="M41.6 90.2a26 26 0 0 1 2.7 1l10 6 3.6 2a2 2 0 0 1 0 .7H25V81h.6l5.3 3 4 2.2V91h6v-1z" class="cls-6"/>
    <path d="M62 0h35.5l2.5 2v1.3h-.5l-13.3 10-1.2.7a6.4 6.4 0 0 0-1.2-1.3l-4.3-2.3L65 2c-1-.5-2-1.3-3-2z" class="cls-7"/>
    <path d="M100 91.7L94.8 89 83 82.7 74.8 78a2.7 2.7 0 0 1-.6-1 59.5 59.5 0 0 0 6.7-.6c3-.8 6-2.8 7-6.7a2.5 2.5 0 0 0 0 .7L99 76a4 4 0 0 0 1.2.2v15.5z" class="cls-8"/>
    <path d="M17.8 45.4v14.8l-4-2-11-6.3L0 50V35.8l2 1 13.3 7.6a16 16 0 0 0 2.5 1z" class="cls-9"/>
    <path d="M17.8 45.4a16 16 0 0 1-2.4-1L2 37l-2-1V21.5L4.8 24l12 6.8 1 .4v14.2z" class="cls-10"/>
    <path d="M100 56.6l-1-.3-7.3-4-16-9.4L62 35c-1-.5-2.4-.6-2.4-2l.5-.7 2-.7 3-2a2 2 0 0 0 1 .8l3 1.8 11 6 11 6.5 6.3 3.6 4 1.8v7z" class="cls-11"/>
    <path d="M24.8 3.3V0h9.8a3.2 3.2 0 0 0 .6 1L52 13.2l17 12.5-2 1.5a5 5 0 0 0-1-1l-9-5L44.3 14 36 9.2l-2.7-1.5z" class="cls-12"/>
    <path d="M100 28v9l-1-.3-7-4-16.6-9.5a4 4 0 0 1-1-1.2l1.6-1.3 3.8-2.8 1.3-1a6 6 0 0 0 2 1l14 8a33 33 0 0 0 3 1z" class="cls-13"/>
    <path d="M81 17.3l-1.3.8a3.7 3.7 0 0 0-.8-1l-6-3-12-7-8-5a30 30 0 0 1-3-2h12c1 1 2 2 3 2l14 9 4 2.7a6.4 6.4 0 0 1 1.3 1l-1 1z" class="cls-14"/>
    <path d="M0 50.4L3 52l11 6 3.8 2.2V64l-5.3 4-1.2.5-6.8-4-4.5-2v-12z" class="cls-15"/>
    <path d="M74.4 22a4 4 0 0 0 1 1.3L92 32.7l7 4 1 .4v6h-1.3l-3-2-8.2-4-15-9a19.4 19.4 0 0 1-2.6-2l3-2z" class="cls-16"/>
    <path d="M50 0a30 30 0 0 0 3 2.2L61.6 7 73 13.6l6 3.4a3.7 3.7 0 0 1 .8 1L76 21a3.6 3.6 0 0 0-.8-1.5c-1.4-1-2.8-1.6-4.2-2.4l-4-2-12.8-7-12.4-7a1.8 1.8 0 0 1-.4 0h8.8z" class="cls-17"/>
    <path d="M67 27.3l2-1.5h.4a10.7 10.7 0 0 0 1.2 1.2l8 6L100 48.6V50l-4-1.7-6.2-3.6-11.4-6.4-10.7-6-3-1.8a2 2 0 0 1-.3-1z" class="cls-18"/>
    <path d="M41.4 0a1.8 1.8 0 0 0 .4.6l12.4 7 12.8 7 4 2.4c1.3.8 2.8 1.5 4 2.4a3.6 3.6 0 0 1 1 1.4L74.3 22 73 23a3.4 3.4 0 0 0-.8-1.3l-3.4-2-13-7.4-10-6L36.4 1a5 5 0 0 1-1-1h5.8z" class="cls-19"/>
    <path d="M86.2 13.3l13.3-10h.5v18l-1.4-.4-9.8-6a20 20 0 0 1-2.6-2z" class="cls-20"/>
    <path d="M35.6 0a5 5 0 0 0 1 1l9 5.3 10 6L69 19.5l3.4 2a3.4 3.4 0 0 1 .7 1.2l-3 2.5v.5h-1L52 13.3 35.2 1a3.2 3.2 0 0 1-.6-1h1z" class="cls-21"/>
    <path d="M86.2 13.3a20 20 0 0 0 2.6 2l9.8 5.5 1.4.5V28a33 33 0 0 1-3.3-1.3L82 18.3a6 6 0 0 1-1-1l3-2.5 1-.8z" class="cls-22"/>
    <path d="M100 76.2a4 4 0 0 1-1.2-.2L89 70.4a2.5 2.5 0 0 1-.4-.7c.8-3.5.5-7-2-9.8a3.8 3.8 0 0 1 1.2 0l7.8 4 4.4 3v9z" class="cls-23"/>
    <path d="M69.4 25.8l.5-.5a19.4 19.4 0 0 0 2 2l15 9 8 4.3 3 1.8 1 .4v5.8L78 33l-8-6a10.7 10.7 0 0 1-1-1.2z" class="cls-24"/>
    <path d="M17.8 9.5L15 8.2 3 1.6 1.8.6 3.3 0h14.5v9.5z" class="cls-21"/>
    <path d="M0 62.4l4.5 2 6.8 4L7 71.7 0 77V62.3z" class="cls-25"/>
    <path d="M60.2 32.3l-.5.7-5 3.5-7 5.2a5.6 5.6 0 0 0-.8.8l-2 1a3.7 3.7 0 0 0-1-1.2l-3-2-13-7-5-2V11.8l7 3.8 9 5 5 2.6 12 7c1 .4 2 .7 2.5 2z" class="cls-26"/>
    <path d="M60.2 32.3c-.3-1.4-1.6-1.7-2.6-2.3l-12-7-5-2.6-8.7-5-8-3.7V3.3l9 4.5 2 1.5 9 4.7 13 7.4 9 5a5 5 0 0 1 1 1l-3 2.3-3 2z" class="cls-27"/>
    <path d="M24.8 31.3l4.2 2 12.3 7 3 2a3.7 3.7 0 0 1 .8 1.2l-4 3-7 5.5-4 3.2-4 3v-27z" class="cls-28"/>
    <path d="M24.8 58.4l4.5-3L34 52a6 6 0 0 0 1 1.5l3 1.6a5.5 5.5 0 0 1 1 2h-3.7v20h-.8l-7.2-4-2.5-1V59z" class="cls-3"/>
    <path d="M24.8 72l2.5 1 7.2 4h.8v10l-4.5-2.2-5.3-3H25v-10z" class="cls-5"/>
    <path d="M70.2 56.3h-6V71a3.7 3.7 0 0 1-1-.4l-2.8-2V66a8.6 8.6 0 0 0-4.8-8 16.2 16.2 0 0 0-7.5-1.6h-9a5.5 5.5 0 0 0-1-1.2l-3-1.6a6 6 0 0 1-1-1.4l8-5.5 4-3 2-1 7 4 8 4.5 7 4a12.8 12.8 0 0 1 2 1z" class="cls-8"/>
    <path d="M59.4 87.5l-7-11.4c4-1 7-3 8-7l2.7 2a3.7 3.7 0 0 0 2 1v18l-3-1z" class="cls-3"/>
    <path d="M70.5 61.5c2.7 0 5.2 0 7.7.4s5.2 3 4.2 6a4.4 4.4 0 0 1-3.7 3h-8.3V61z" class="cls-8"/>
    <path d="M41.6 71.6v-10c3.2.2 6.4-.3 9.5.7a4.2 4.2 0 0 1 4 4 4.3 4.3 0 0 1-3 4.6 12.7 12.7 0 0 1-3 0h-6z" class="cls-3"/>
  </g>
</svg>