<svg xmlns="http://www.w3.org/2000/svg" width="50" height="50" xmlns:xlink="http://www.w3.org/1999/xlink">
  <defs>
    <linearGradient id="linearGradient-1" x1="73.9%" x2="25.3%" y1="3.9%" y2="89.6%">
      <stop stop-color="#7D23B4" offset="0%"/>
      <stop stop-color="#C514F3" offset="36.1%"/>
      <stop stop-color="#C900BC" offset="100%"/>
    </linearGradient>
    <path id="path-2" d="M12.5,50 L45.9082901,50 C48.1611751,50 50,48.1680791 50,45.9082901 L50,4.09170985 C50,1.8388249 48.1680791,0 45.9082901,0 L4.09170985,0 C1.8388249,0 0,1.8319209 0,4.09170985 L0,45.9082901 C0,48.1611751 1.8319209,50 4.09170985,50 L9.375,50 L9.375,0 L12.5,0 L12.5,50 Z"/>
  </defs>
  <g id="Symbols" fill="none" fill-rule="evenodd">
    <g id="Footer">
      <g id="Group-15">
        <g id="Group">
          <g id="rp_logo-copy-2">
            <mask id="mask-3" fill="#fff">
              <use xlink:href="#path-2"/>
            </mask>
            <use id="Mask" fill="url(#linearGradient-1)" xlink:href="#path-2"/>
            <path fill="#FFF" d="M43.8 22.4H46.9V77.4H43.8z" transform="matrix(1 0 0 1 -34.393 -24.336)"/>
            <path id="Rectangle-204-Copy-5" d="M0,0 L50,0 L50,19.7753906 L50,50 L0,50 L0,0 Z" mask="url(#mask-3)"/>
            <g id="Text" mask="url(#mask-3)">
              <g id="RP">
                <path id="Rectangle-235" fill="#7127B2" fill-opacity=".7" d="M29.2 0.1L102.2 0.1 21.3 59.9z" style="mix-blend-mode:multiply" opacity=".4" transform="matrix(-1 0 0 1 97.542 -16.086)"/>
                <path id="Rectangle-235-Copy" fill="#292929" fill-opacity=".2" d="M0.6 16.5L81.1 13.7 0.2 73.5z" style="mix-blend-mode:multiply" transform="rotate(180 27.677 35.59)"/>
                <path id="Rectangle-327" fill="#9700C6" fill-opacity=".4" d="M24 15.3H36.9V77H24z" style="mix-blend-mode:multiply" transform="translate(-26.003 -16.086)"/>
              </g>
            </g>
            <g id="Group-2" fill="#FFF" mask="url(#mask-3)">
              <path id="Path-Copy-2" d="M0,0 L6.11069165,0 C6.93870279,0 7.74186154,0.0869398654 8.52019201,0.260822204 C9.29852248,0.434704544 9.98990141,0.720364101 10.5943495,1.11780945 C11.1987977,1.51525479 11.6831769,2.03689399 12.0475018,2.68274267 C12.4118267,3.32859136 12.5939864,4.11519014 12.5939864,5.04256262 C12.5939864,6.31769977 12.233807,7.35683816 11.5134373,8.16000897 C10.7930676,8.96317977 9.81188914,9.50551893 8.56987243,9.78704272 L13.2646721,17.5868686 L9.4889602,17.5868686 L5.41516577,10.1348057 L3.12986645,10.1348057 L3.12986645,17.5868686 L0,17.5868686 L0,0 Z M5.68840808,7.57626403 C6.13553409,7.57626403 6.5826534,7.54314409 7.02977942,7.47690319 C7.47690543,7.4106623 7.87848481,7.2864625 8.2345296,7.10430005 C8.59057439,6.9221376 8.88451393,6.661318 9.11635705,6.32183343 C9.34820017,5.98234887 9.46411999,5.54764954 9.46411999,5.01772241 C9.46411999,4.53747595 9.35648016,4.14417656 9.14119726,3.83781244 C8.92591437,3.53144832 8.65267479,3.28718869 8.32147033,3.10502624 C7.99026588,2.92286379 7.61352646,2.79866399 7.19124078,2.73242309 C6.7689551,2.6661822 6.35909573,2.63306225 5.96165039,2.63306225 L3.12986645,2.63306225 L3.12986645,7.57626403 L5.68840808,7.57626403 Z M14.453125,0 L20.1912135,0 C21.2013871,0 22.1121857,0.091079859 22.9236366,0.273242309 C23.7350875,0.45540476 24.4306064,0.753484298 25.0102142,1.16748987 C25.589822,1.58149544 26.0369413,2.11141462 26.3515856,2.7572633 C26.6662298,3.40311199 26.8235496,4.18143079 26.8235496,5.09224304 C26.8235496,6.06929618 26.6413898,6.88901491 26.2770649,7.55142382 C25.91274,8.21383274 25.4200808,8.74789191 24.7990724,9.15361737 C24.1780641,9.55934282 23.4535652,9.85328237 22.6255541,10.0354448 C21.7975429,10.2176073 20.9198643,10.3086871 19.9924918,10.3086871 L17.5829915,10.3086871 L17.5829915,17.5868686 L14.453125,17.5868686 L14.453125,0 Z M19.7640635,7.67562487 C20.2774304,7.67562487 20.7659496,7.63836493 21.2296359,7.56384393 C21.6933221,7.48932293 22.1073215,7.35684313 22.4716464,7.16640057 C22.8359713,6.97595801 23.1257708,6.71513841 23.3410537,6.38393396 C23.5563366,6.0527295 23.6639764,5.62217017 23.6639764,5.09224304 C23.6639764,4.57887613 23.5563366,4.16073678 23.3410537,3.83781244 C23.1257708,3.51488809 22.8401113,3.26234848 22.4840665,3.08018603 C22.1280217,2.89802358 21.7223023,2.77796377 21.2668962,2.72000299 C20.8114901,2.66204221 20.3436708,2.63306225 19.8634243,2.63306225 L17.578125,2.63306225 L17.578125,7.67562487 L19.7640635,7.67562487 Z" transform="translate(17.578 28.125)"/>
            </g>
          </g>
        </g>
      </g>
    </g>
  </g>
</svg>