<svg id="Design" xmlns="http://www.w3.org/2000/svg" viewBox="0 0 95 100"><defs><style>.cls-1{fill:#3f3f3f;}.cls-2{fill:#fff;}</style></defs><title>SVG Icon</title><g id="Balsamiq_Mockups" data-name="Balsamiq Mockups"><g id="SVG_Icon" data-name="SVG Icon"><path id="outside" class="cls-1" d="M426.8,11C421.3,6.1,413.4,4,407.2.3c-1.8-1.1-7.7,1.6-6.3,2.4l1.5,0.9c-6.3.2-22.3,1.4-27.6,3.5-20.9,8.1-30.3,58.2-14,79,19.5,24.9,73.6,15.2,84.2-19.3,7.5-24.6-2.6-45.2-18.1-55.8h0Z" transform="translate(-352.5 0)"/><path id="inside" class="cls-2" d="M411.7,91.2c-16.5,4.7-39.8.4-47.5-12.3-10.4-17.2-5.8-57.2,12.3-65a53.2,53.2,0,0,1,22-4.8,22.9,22.9,0,0,1,5.8,1.3,101.9,101.9,0,0,1,9.5,4.7c1,0.5,3.3-.3,4.9-1l5,2.7h0.1a1.2,1.2,0,0,0,.8.4l3,1.9c25,20.2,11,64.4-15.8,72.1h0Z" transform="translate(-352.5 0)"/><path id="eye-left" class="cls-1" d="M381.1,36.6c6.5-2.1,8.2,7.6,3.5,8.8-7.1.9-6.9-7.5-3.5-8.8h0Z" transform="translate(-352.5 0)"/><path id="eye-right" class="cls-1" d="M411.8,37.9c2.7-1.7,5.2-1.3,7,1.8s-3.3,7.6-6.1,6.2-3.1-6.7-1-8h0Z" transform="translate(-352.5 0)"/><path id="mouth" class="cls-1" d="M424.3,57.9c-3.9,25.5-52.5,20.6-52.4-3.8a1.1,1.1,0,0,1,1.2-1.2c0.9-.1,1.3,1.6,1.5,2.3,3.9,11.9,33.3,21.2,47.5,2.5,0.4-.7.6-1.8,1.8-1.4s0.5,0.4.5,1.7h0Z" transform="translate(-352.5 0)"/></g></g></svg>