<svg xmlns="http://www.w3.org/2000/svg" xml:space="preserve" width="256" height="256"><g style="stroke:none;stroke-width:0;stroke-dasharray:none;stroke-linecap:butt;stroke-linejoin:miter;stroke-miterlimit:10;fill:none;fill-rule:nonzero;opacity:1" transform="matrix(2.81 0 0 2.81 1.407 1.407)"><linearGradient id="a" x1="23.333" x2="75.274" y1="16.796" y2="84.408" gradientUnits="userSpaceOnUse"><stop offset="0%" style="stop-color:#09b6d1;stop-opacity:1"/><stop offset="93.25%" style="stop-color:#7435e6;stop-opacity:1"/><stop offset="100%" style="stop-color:#7c2ce7;stop-opacity:1"/></linearGradient><path d="M75.896 90H14.104C6.315 90 0 83.685 0 75.896V14.104C0 6.315 6.315 0 14.104 0h61.791C83.685 0 90 6.315 90 14.104v61.791C90 83.685 83.685 90 75.896 90z" style="stroke:none;stroke-width:1;stroke-dasharray:none;stroke-linecap:butt;stroke-linejoin:miter;stroke-miterlimit:10;fill:url(#a);fill-rule:nonzero;opacity:1"/><path d="M78.288 48.973c-.115 0-.219.074-.273.23-.692 1.975-1.627 3.15-2.397 3.15-.442 0-.621-.493-.621-1.266 0-1.934 1.158-6.036 1.742-7.906.068-.226.111-.429.111-.601 0-.544-.297-.81-1.033-.81-.793 0-1.647.311-2.478 1.766-.287-1.283-1.154-1.843-2.366-1.843-1.401 0-2.755.901-3.869 2.363s-2.424 1.941-3.409 1.705c.709-1.735.972-3.031.972-3.993 0-1.509-.746-2.42-1.951-2.42-1.833 0-2.89 1.749-2.89 3.588 0 1.421.645 2.883 2.063 3.592-1.188 2.687-2.923 5.117-3.582 5.117-.851 0-1.1-4.162-1.053-7.14.03-1.708.172-1.796.172-2.312 0-.297-.192-.5-.965-.5-1.803 0-2.36 1.526-2.444 3.278a8.573 8.573 0 0 1-.311 1.968c-.753 2.687-2.306 4.726-3.318 4.726-.469 0-.597-.469-.597-1.084 0-1.934 1.084-4.351 1.084-6.414 0-1.516-.665-2.474-1.917-2.474-1.475 0-3.426 1.755-5.273 5.043.608-2.518.857-4.956-.942-4.956-.39.006-.774.105-1.117.29a.635.635 0 0 0-.365.614c.172 2.68-2.16 9.546-4.372 9.546-.402 0-.597-.435-.597-1.138 0-1.938 1.154-6.029 1.735-7.902a2.23 2.23 0 0 0 .115-.635c0-.513-.317-.776-1.036-.776-.79 0-1.647.3-2.474 1.755-.29-1.283-1.158-1.843-2.37-1.843-1.988 0-4.209 2.103-5.185 4.844-1.306 3.659-3.939 7.194-7.484 7.194-3.217 0-4.915-2.677-4.915-6.907 0-6.107 4.483-11.096 7.808-11.096 1.59 0 2.349 1.013 2.349 2.566 0 1.88-1.05 2.755-1.05 3.47 0 .219.182.435.544.435 1.445 0 3.146-1.698 3.146-4.014 0-2.316-1.88-4.01-5.205-4.01-5.496 0-11.025 5.529-11.025 12.615 0 5.637 2.782 9.037 7.592 9.037 3.281 0 6.147-2.552 7.693-5.529.176 2.468 1.296 3.757 3.004 3.757 1.519 0 2.748-.905 3.686-2.495.361 1.664 1.32 2.478 2.566 2.478 1.428 0 2.623-.905 3.76-2.586-.017 1.32.284 2.562 1.428 2.562.54 0 1.185-.125 1.3-.598 1.205-4.982 4.182-9.05 5.094-9.05.27 0 .344.26.344.567 0 1.354-.955 4.128-.955 5.901 0 1.914.814 3.18 2.495 3.18 1.863 0 3.757-2.282 5.02-5.617.395 3.116 1.249 5.631 2.586 5.631 1.641 0 4.554-3.453 6.319-7.109.692.088 1.732.064 2.731-.641a9.43 9.43 0 0 0-.675 3.433c0 3.393 1.62 4.344 3.015 4.344 1.516 0 2.744-.905 3.686-2.495.311 1.435 1.104 2.474 2.562 2.474 2.282 0 4.263-2.333 4.263-4.247-.002-.505-.218-.812-.471-.812zm-47.365 3.2c-.922 0-1.283-.928-1.283-2.312 0-2.404 1.644-6.417 3.382-6.417.76 0 1.046.895 1.046 1.988.002 2.441-1.561 6.741-3.145 6.741zM62.489 45c-.55-.655-.749-1.546-.749-2.339 0-.979.358-1.806.786-1.806s.56.422.56 1.009c.001.982-.35 2.417-.597 3.136zm7.147 7.173c-.922 0-1.283-1.067-1.283-2.312 0-2.319 1.644-6.417 3.396-6.417.76 0 1.03.888 1.03 1.988-.001 2.441-1.537 6.741-3.143 6.741z" style="stroke:none;stroke-width:1;stroke-dasharray:none;stroke-linecap:butt;stroke-linejoin:miter;stroke-miterlimit:10;fill:#fff;fill-rule:nonzero;opacity:1"/></g></svg>