<svg xmlns="http://www.w3.org/2000/svg" width="480" height="480"><defs><linearGradient id="a" x1=".5" x2=".5" y1="1"><stop stop-opacity="0" stop-color="#d1d3d4" offset=".4"/><stop stop-color="#d1d3d4" offset="1"/></linearGradient><linearGradient id="b" x1=".5" x2=".5" y1="1"><stop stop-opacity="0" stop-color="#d1d3d4" offset=".4"/><stop stop-color="#d1d3d4" offset="1"/></linearGradient><linearGradient id="c" x2="1" y1=".5" y2=".5"><stop stop-color="#e8e7e5" offset="0"/><stop stop-color="#fff" offset="1"/></linearGradient><linearGradient id="d" x2="1" y1=".5" y2=".5"><stop stop-color="#e8e7e5" offset="0"/><stop stop-color="#fff" offset="1"/></linearGradient></defs><path fill="none" d="M-1-1h582v402H-1z"/><path fill="#fff" d="M156 49V28.5h29.6v-22h-51.8V69h51.8V49H156zm82.8-20.4h20.6v-22h-51.7v22L228.2 49h-20.5v20h51.7V49l-20.6-20.4zm73.3 0h21v-22h-52v22c7 7 11 10.4 21 20.4h-21v20h52V49l-21-20.5z"/><g stroke="null"><path fill="none" d="M-54-48h580.6v563.6H-54V-48z"/><path fill="#2062af" d="M383 441.2l-146.7 38.2-147-38L55.7 84.8H417L383 441z"/><path fill="#3c9cd7" d="M236.3 113.7V449h.3l118.8-31L383 113.7H236.2z"/><path fill="#fff" d="M236.2 202.8l-105 42.5 3.3 42 101.4-42 107.4-45 4.3-43-112 45.5z"/><path fill="url(#a)" d="M131 245.3l3.5 42 101.4-42v-42.5l-106 42.5h1z"/><path fill="url(#b)" d="M348.7 157.3l-112.5 45.5v42.4l108-45 4.5-43z"/><path fill="url(#c)" d="M131.2 245.3l3.6 42 156.3.5-3 55.5-52 14.7-49.3-12.7-2.5-34.8h-46l6 67.6 92.6 27 92-26.2 12-133.2H131z"/><path d="M236.2 245.3h-105l3.3 42 101.4.4v-42.4zm-.3 112.5h-1L186 346l-3-35h-45.6l6 67.4L236 405v-47l-.3-.2z" opacity=".1"/><path fill="url(#d)" d="M120.6 157.3h227l-4.5 43H126l-5.4-43z"/><path d="M236.2 157.3H121.7l5.4 43h109.5v-43z" opacity=".1"/></g></svg>