<svg xmlns="http://www.w3.org/2000/svg" viewBox="0 0 128 128"><path fill="#fff" d="M15.743 74.755c-.34 0-.673-.174-.86-.49-.388-.65-.593-1.398-.593-2.16V12.112c0-2.332 1.897-4.23 4.23-4.23h90.96c2.33 0 4.228 1.898 4.228 4.23v59.993c0 .753-.2 1.494-.582 2.142-.28.476-.892.635-1.37.355-.475-.28-.634-.893-.354-1.37.2-.34.306-.73.306-1.127V12.112c0-1.23-1-2.23-2.23-2.23H18.52c-1.23 0-2.23 1-2.23 2.23v59.993c0 .402.11.795.313 1.138.282.475.126 1.088-.348 1.37-.162.096-.338.142-.512.142z"/><path fill="#fff" d="M107.308 69.464H20.53c-.276 0-.5-.224-.5-.5v-55c0-.276.224-.5.5-.5h86.778c.276 0 .5.224.5.5v55c0 .276-.224.5-.5.5zm-86.278-1h85.778v-54H21.03v54z"/><g fill="#fff"><path d="M117.548 80.117H10.236c-4.95 0-6.81-2.068-7.006-2.304-.15-.18-.23-.406-.23-.64v-3.108c0-.552.448-1 1-1s1 .448 1 1v2.672c.548.426 2.12 1.38 5.237 1.38H117.55c3.122 0 4.823-.947 5.45-1.393V74.59c0-.553.45-1 1-1s1 .447 1 1v2.605c0 .256-.098.503-.274.69-.09.09-2.183 2.232-7.178 2.232z"/><path d="M4 77.174c-.552 0-1-.448-1-1V73.98c0-.623.507-1.13 1.13-1.13h119.74c.624 0 1.13.507 1.13 1.13v1.757c0 .552-.448 1-1 1s-1-.448-1-1v-.886H5v1.325c0 .553-.448 1-1 1z"/><path d="M70.33 76.16H57.226c-1.07 0-2.633-.542-2.75-1.706-.006-.027-.008-.055-.008-.083v-.08c0-.274.224-.5.5-.5s.5.226.5.5c0 .47.983.87 1.758.87H70.33c.456 0 1.368-.384 1.417-.914.026-.275.27-.48.544-.452.278.026.48.27.455.544-.113 1.216-1.608 1.825-2.413 1.825z"/></g></svg>