<svg xmlns="http://www.w3.org/2000/svg" width="512" height="512">
  <switch>
    <g>
      <path fill="hsl(13, 77%, 52%)" d="M107.6 471l-33-370.4h362.8l-33 370.2L255.7 512"/>
      <path fill="hsl(18, 86%, 55%)" d="M256 480.5l120-33.3L404.3 131H256"/>
      <path fill="#EBEBEB" d="M256 268.2h-60l-4.2-46.5H256v-45.4H142l1.2 12.2 11.2 125H256m0 72.7h-.2l-50.6-13.6-3.2-36.3h-45.6l6.4 71.3 93 26 .2-.2"/>
      <path fill="#FFF" d="M108.4 0h23v22.8h21.2V0h23v69h-23V46h-21v23h-23.2V0zM206 23h-20.3V0h63.7v23H229v46h-23V23zm53.5-23h24l15 24.3L313 0h24v69h-23V34.8l-15.8 24.6h-.4l-16-24.6V69h-22.5V0zm89.2 0h23v46.2h32.6V69h-55.6V0z"/>
      <path fill="#FFF" d="M255.8 268.2v45.4h56l-5.3 59-50.7 13.6v47.2l93-25.8.8-7.6 10.7-119.6 1-12.2h-12m-93.5-92v45.5h109.6l1-10.2 2-23 1.2-12.2"/>
    </g>
  </switch>
</svg>