<svg xmlns="http://www.w3.org/2000/svg" viewBox="0 0 1000 1000"><path fill="#fff" d="M10.2 218.1c-.2 187.6-.2 375.2 0 562.8.1 55.5 15.8 71.4 71.2 71.4 279.2.1 558.5.2 837.7 0 54.2 0 70.7-17 70.8-72.5.2-186.2.2-372.3 0-558.5-.1-57.5-16.4-73.7-74-73.7-138.9-.2-277.8-.1-416.7-.1s-277.8-.1-416.7.1c-56.1.1-72.2 15.6-72.3 70.5zm955.7 7.3c-1.8 183.1-1.8 366.2 0 549.2.4 42-14.4 54.2-55.1 53.6-137.3-2-274.7-.8-412-.8s-274.7-1.1-412 .7c-38.8.5-52.8-11-52.4-51.2 1.7-184.5 1.7-369.1 0-553.6-.4-39.9 13.2-51.7 52.3-51.5 274.7 1.3 549.3 1.3 824 0 40.4-.2 55.6 11.3 55.2 53.6z"/><path fill="#fff" d="M504.5 204.9c-117.4 0-234.8.7-352.1-.5-29.2-.3-39.9 7.8-39.7 38.7 1.3 170.3 1.4 340.7 0 511-.3 32.1 9.3 41.8 41.3 41.7 230.4-1.2 460.9-1.1 691.4-.1 31.2.1 42.5-8.2 42.2-41.1-1.5-168.9-1.6-337.8.1-506.7.3-34.4-10.3-44.2-43.9-43.7-113.1 1.8-226.2.7-339.3.7zm357.7 58.8c-1.2 157.5-1.3 315.1.1 472.6.2 28.3-7.8 36.7-36 36.4-108.8-1.4-217.7-.6-326.6-.6-107.4 0-214.9-.8-322.3.6-28.2.4-40.3-4.8-39.9-36.9 1.6-157.5 1.4-315.1.1-472.6-.2-28.4 8-36.4 36.1-36.3 217.7 1 435.4 1.1 653.1-.1 29.3-.3 35.6 9.7 35.4 36.9zm62.1 203.7c19.6 3.6 32.6 12.4 32.6 33.4 0 18.5-11 30.1-28 31.4-19.4 1.6-32.2-9.7-33.7-29.9-1.6-21 12.2-29.8 29.1-34.9zM64.8 516.3c-10-1.8-13.6-10-12.1-19.3 1.5-9.6 7.7-14.7 17.9-13.9 9.3 2.3 15.8 7.8 14.9 17.6-1.1 11.7-9.1 17.7-20.7 15.6z"/></svg>